<mxfile host="app.diagrams.net" modified="2021-09-26T21:50:40.665Z" agent="5.0 (Windows NT 10.0; Win64; x64) AppleWebKit/537.36 (KHTML, like Gecko) Chrome/93.0.4577.82 Safari/537.36" etag="PD3PlZk5Jb63S1HUyyI0" version="15.3.2" type="github">
  <diagram id="HTMUwd_s12ywtiQb2sL4" name="Page-1">
    <mxGraphModel dx="1550" dy="794" grid="1" gridSize="10" guides="1" tooltips="1" connect="1" arrows="1" fold="1" page="1" pageScale="1" pageWidth="850" pageHeight="1100" math="0" shadow="0">
      <root>
        <mxCell id="0" />
        <mxCell id="1" parent="0" />
        <mxCell id="LvsWlQzkbfCYbf-eFKxt-10" value="Resource Group - Red_Team" style="swimlane;html=1;fillColor=#ffffff;whiteSpace=wrap" parent="1" vertex="1">
          <mxGeometry x="650" y="10" width="1040" height="870" as="geometry" />
        </mxCell>
        <mxCell id="LvsWlQzkbfCYbf-eFKxt-5" value="Red_Team_Security_Group&#xa;" style="shape=image;verticalLabelPosition=bottom;verticalAlign=top;imageAspect=0;aspect=fixed;image=data:image/svg+xml,PHN2ZyB4bWxucz0iaHR0cDovL3d3dy53My5vcmcvMjAwMC9zdmciIGlkPSJmMmQ5MGRhNC1hYzc0LTQ3NGYtODI0Yi00ZDllZTEzOWQ0ZTYiIHdpZHRoPSIxOCIgaGVpZ2h0PSIxOCIgdmlld0JveD0iMCAwIDE4IDE4Ij48ZGVmcz48bGluZWFyR3JhZGllbnQgaWQ9ImFmOTBjNzcyLTZlMjktNDUxNi1iZDE0LTU4YjcwNTk3NGU2MiIgeDE9IjkiIHkxPSIxLjM2IiB4Mj0iOSIgeTI9IjE3Ljg3IiBncmFkaWVudFVuaXRzPSJ1c2VyU3BhY2VPblVzZSI+PHN0b3Agb2Zmc2V0PSIwIiBzdG9wLWNvbG9yPSIjNmJiOWYyIi8+PHN0b3Agb2Zmc2V0PSIxIiBzdG9wLWNvbG9yPSIjMWI5M2ViIi8+PC9saW5lYXJHcmFkaWVudD48L2RlZnM+PHRpdGxlPkljb24tbmV0d29ya2luZy04MzwvdGl0bGU+PHBhdGggZD0iTTE2LjM2LDguNGMwLDQuODQtNS44NSw4Ljc0LTcuMTIsOS41M2EuNDYuNDYsMCwwLDEtLjQ4LDBjLTEuMjctLjc5LTcuMTItNC42OS03LjEyLTkuNTNWMi41OGEuNDYuNDYsMCwwLDEsLjQ1LS40NkM2LjY0LDIsNS41OSwwLDksMHMyLjM2LDIsNi45MSwyLjEyYS40Ni40NiwwLDAsMSwuNDUuNDZaIiBmaWxsPSIjMWI5M2ViIi8+PHBhdGggZD0iTTE1Ljc1LDguNDVjMCw0LjQ0LTUuMzYsOC02LjUzLDguNzRhLjQzLjQzLDAsMCwxLS40NCwwYy0xLjE3LS43Mi02LjUzLTQuMy02LjUzLTguNzRWMy4xMWEuNDIuNDIsMCwwLDEsLjQxLS40MkM2LjgzLDIuNTgsNS44Ny43NSw5LC43NXMyLjE3LDEuODMsNi4zNCwxLjk0YS40Mi40MiwwLDAsMSwuNDEuNDJaIiBmaWxsPSJ1cmwoI2FmOTBjNzcyLTZlMjktNDUxNi1iZDE0LTU4YjcwNTk3NGU2MikiLz48cGF0aCBkPSJNMTEuMDUsMTIuOTRjLTEuMTItLjE1LTEuMTEtLjg4LTEuMS0ySDcuODNjMCwxLjE3LDAsMS45LTEuMSwyYS41OC41OCwwLDAsMC0uNTMuNTJoNS4zOUEuNTkuNTksMCwwLDAsMTEuMDUsMTIuOTRaIiBmaWxsPSIjMWY1NmEzIi8+PHJlY3QgeD0iNC4wMiIgeT0iNC4wNCIgd2lkdGg9IjkuNzIiIGhlaWdodD0iNi44OCIgcng9IjAuMzMiIGZpbGw9IiMxNDkwZGYiLz48cmVjdCB4PSI0LjU4IiB5PSI0LjU3IiB3aWR0aD0iOC41OSIgaGVpZ2h0PSI1LjcxIiByeD0iMC4xNiIgZmlsbD0iI2ZmZiIvPjxwb2x5Z29uIHBvaW50cz0iMTAuNjIgNi40MiAxMC42MyA4LjQzIDguODggOS40NCA4Ljg4IDcuNDMgMTAuNjIgNi40MiIgZmlsbD0iIzAwNzhkNCIvPjxwb2x5Z29uIHBvaW50cz0iMTAuNjIgNi40MiA4Ljg4IDcuNDMgNy4xMyA2LjQyIDguODcgNS40MSAxMC42MiA2LjQyIiBmaWxsPSIjODNiOWY5Ii8+PHBvbHlnb24gcG9pbnRzPSI4Ljg4IDcuNDMgOC44NyA5LjQ0IDcuMTMgOC40MyA3LjEzIDYuNDIgOC44OCA3LjQzIiBmaWxsPSIjNWVhMGVmIi8+PHBvbHlnb24gcG9pbnRzPSI4Ljg4IDcuNDMgOC44OCA3LjQzIDguODggOS40NCA4Ljg4IDkuNDQgMTAuNjIgOC40MyA4Ljg4IDcuNDMiIGZpbGw9IiM1ZWEwZWYiIG9wYWNpdHk9IjAuMiIvPjxwb2x5Z29uIHBvaW50cz0iOC44NyA3LjQ1IDguODggNy40NiA4Ljg4IDkuNDcgOC44NyA5LjQ3IDcuMTMgOC40NiA4Ljg3IDcuNDUiIGZpbGw9IiM4M2I5ZjkiIG9wYWNpdHk9IjAuMiIvPjwvc3ZnPg==" parent="LvsWlQzkbfCYbf-eFKxt-10" vertex="1">
          <mxGeometry x="160" y="331" width="60" height="60" as="geometry" />
        </mxCell>
        <mxCell id="LvsWlQzkbfCYbf-eFKxt-11" value="" style="verticalLabelPosition=bottom;html=1;verticalAlign=top;align=center;strokeColor=none;fillColor=#00BEF2;shape=mxgraph.azure.virtual_network;pointerEvents=1;" parent="LvsWlQzkbfCYbf-eFKxt-10" vertex="1">
          <mxGeometry x="110" y="60" width="70" height="40" as="geometry" />
        </mxCell>
        <mxCell id="LvsWlQzkbfCYbf-eFKxt-3" value="Web 1&lt;br&gt;IP - 10.0.0.5" style="verticalLabelPosition=bottom;html=1;verticalAlign=top;align=center;strokeColor=none;fillColor=#00BEF2;shape=mxgraph.azure.virtual_machine;" parent="LvsWlQzkbfCYbf-eFKxt-10" vertex="1">
          <mxGeometry x="540" y="170" width="50" height="40" as="geometry" />
        </mxCell>
        <mxCell id="LvsWlQzkbfCYbf-eFKxt-16" value="" style="aspect=fixed;html=1;points=[];align=center;image;fontSize=12;image=img/lib/mscae/Docker.svg;" parent="LvsWlQzkbfCYbf-eFKxt-10" vertex="1">
          <mxGeometry x="600" y="590" width="24.39" height="20" as="geometry" />
        </mxCell>
        <mxCell id="LvsWlQzkbfCYbf-eFKxt-17" value="" style="shape=image;verticalLabelPosition=bottom;verticalAlign=top;imageAspect=0;aspect=fixed;image=data:image/svg+xml,PHN2ZyB4bWxucz0iaHR0cDovL3d3dy53My5vcmcvMjAwMC9zdmciIHdpZHRoPSIyMDI0Ljg2NSIgaGVpZ2h0PSIyMDI0Ljg0OSIgdmlld0JveD0iMCAwIDI1NS4xMDEgMjU1LjEzMSIgcHJlc2VydmVBc3BlY3RSYXRpbz0ieE1pbllNaW4gbWVldCI+JiN4YTsgICAgPHBhdGggZD0iTTI1NS4xMzMgMTI3LjU2NmMwIDcwLjQ1NS01Ny4xMSAxMjcuNTY1LTEyNy41NjcgMTI3LjU2NUM1Ny4xMTYgMjU1LjEzMSAwIDE5OC4wMjEgMCAxMjcuNTY2IDAgNTcuMTE2IDU3LjExNiAwIDEyNy41NjYgMGM3MC40NTYgMCAxMjcuNTY3IDU3LjExNiAxMjcuNTY3IDEyNy41NjYiIGZpbGw9IiMxYTE5MTgiLz4mI3hhOyAgICA8cGF0aCBkPSJNMTI5LjcxNCA3Ny45MjdsMzMuMDExIDgxLjQ3Ni00OS44NjMtMzkuMjc4IDE2Ljg1Mi00Mi4xOTd6bTU4LjY0NCAxMDAuMjQ1TDEzNy41OCA1NS45N2MtMS40NS0zLjUyNC00LjM0OC01LjM5LTcuODY2LTUuMzktMy41MjUgMC02LjYzNCAxLjg2Ni04LjA4NCA1LjM5TDY1Ljg5OCAxOTAuMDFoMTkuMDY1bDIyLjA2Mi01NS4yNjUgNjUuODQgNTMuMTljMi42NDcgMi4xNDEgNC41NTggMy4xMSA3LjA0MSAzLjExIDQuOTc0IDAgOS4zMjItMy43MyA5LjMyMi05LjExMSAwLS44NzYtLjMxLTIuMjY3LS44Ny0zLjc2MnoiIGZpbGw9IiNmZmYiLz4mI3hhOzwvc3ZnPg==" parent="LvsWlQzkbfCYbf-eFKxt-10" vertex="1">
          <mxGeometry x="600" y="618" width="24" height="24" as="geometry" />
        </mxCell>
        <mxCell id="1xD5PDsMJuq3n_WsqEgS-1" value="Web 3&lt;br&gt;IP - 10.0.0.8" style="verticalLabelPosition=bottom;html=1;verticalAlign=top;align=center;strokeColor=none;fillColor=#00BEF2;shape=mxgraph.azure.virtual_machine;" vertex="1" parent="LvsWlQzkbfCYbf-eFKxt-10">
          <mxGeometry x="540" y="400" width="50" height="40" as="geometry" />
        </mxCell>
        <mxCell id="LvsWlQzkbfCYbf-eFKxt-6" value="" style="shape=image;verticalLabelPosition=bottom;labelBackgroundColor=#ffffff;verticalAlign=top;aspect=fixed;imageAspect=0;image=data:image/png,iVBORw0KGgoAAAANSUhEUgAAATsAAAE7CAYAAACi3CbHAAAAAXNSR0IArs4c6QAAAARnQU1BAACxjwv8YQUAAAAJcEhZcwAADsIAAA7CARUoSoAAABgzSURBVHhe7d1dcJTXfcfxc57VShgIBkIMuO4YJbElMmkN8UwNvoFwE6iFwc0kSLkA1jcuvXGcGydXtm/qcFPbM53i3HiROmNBMh0wkBJugt02wZlpAp6JI6khgUxdYxLMi22Ed1f7nJ7z7B9FEtJqV9q35znfz4y85/+AL3R4nt+e87ycRyvAE9984zeP6EAvCFSwOdqg1d32v+ui9uyGlVGXXcMoc93+nOsYW3Bu4InOG9GfouURdkicvmPDXWFgNgQ6tUkZs8amU7fd01fLH9eUMeaW1vptpfVFFZo/hCp8s2PRgrcHtnTm5K+gRRB2iL1dx4c2BUZvsIGzyWizQSu9TP6omc4Yrd60afhW+8KONwm/5iPsEEt29LZDpYIdxoQ7WyTcZhOFny6a/sHHu0dkGxqIsENsxDDgpmWUGlJh+EoxKB79Uc+Xo/OAqD/CDi3tGyd+vbItbNtrp6hP1+u8WzPZ4DuijTo8uL3rsGxCnRB2aEnfOjHykLEBZ8KwV2t9l2xOLKPMNW30K+mx9pe5wlsfhB1aSjRVDewoTqmvlrb4hdCrH8IOLcHdA5dKpV60TS9Dbqoo9JQ+OKYK+zmvVxuEHZpq18mh+3UxeMnuiE/IJkzg7uOzI92X2+9qf4HbV+aHsENTRBceVPpZ23ymtAWzuGBHe/sO9XSfkhpVIuzQcLtODO2xUzQ7movv7SNNY9TJMV3IMLWtHmGHholGcyadtXvdNtmEOYgeUTPqhfTijpeZ2laOsEND9B4fdvfJPcdornZs6J21odfHExmVIexQV3Ju7ohtbixtQS3JrSr7uCl5doQd6ia6nSRIHbF7WeKefGhBB9IL259hWjszwg510Xts6Cml9Us+PP3QKpjWlkfYoaZ2//RCR2E0/5Jt7ittQSO5aa396OMWlTsRdqiZ3Ucu3F1I50/aJufnmixU4d7DPWv7pYQVyCcwLy7o8m2507ZJ0LWAQAUHoyvgGEfYYd7cI1/5dP6M1nq9bEILsP8eL/cdH3lOSu8xjcW8uKALioEb0XWWtqDlaJ0dfOzBJ6XyFmGHOXNrzoXKnOZG4Rgg8Ag7zE1ptRJ9lqCLlQODPV3/IG3vcM4OVXNPRbipK0EXO/t8PofHyA5VcffR5W/muBgRY77elkLYoWLRDcM38+7xL1YtiTmjzFbfbjxmGouKFW4VDhB0CWHUEfdycam8wMgOFXE3qLr7tqREEhh1aUwX1vuyECgjO8yq79hwl/1wL8NBkmi1OlpM1ROEHcpy5+lMoI+weklCabXNl8fKCDuU5c7TaaXWSolketGtPSjtxOKcHWbkXozjHiiXEsl2IV1oX5/kF3MzssO03I3DWmm3Lh380JlP5w5IO5EIO0wrpdp41aFn7L93X++J4a9JmThMY3GHvmPDO1Sgj0oJjxilhtoX2ulsAt9lwcgOk7irr0rrRE9nMDN3MarwSe7bUiYKYYdJCqP5F+0ez9vAPGa0es6ds5UyMQg7jHPr09mPZ0oVfOXuqUypdOJG94QdxoVKsYQ3InY6+0TSLlYQdoi4UZ3bwaUE3NWKRD0iSNghwqgOU7k1C6Mr8wlB2IFRHWbkLlZIM/YIOzCqw4zc6E4uXMUeYec59wA4ozqUk5QvQ8LOc0Eq4K3xKMt9GSZhdEfYeSy6cdSonVICMwqVeVaasUXYeSxl2npZlBMVsV+Ku49cuFuqWCLsPGaDjiksKuK+FPOpT3uljCXCzlNyd3xnqQJmp4NgjzRjibDzV6x3XDTFRnn5UiwRdh6KlnHiwgTmwKR0bL8kCTsP5Udzm7kwgbnQRsX2vB1h5yGtdGKed0TDde46PrRJ2rFC2Plpq3wCVQtUsFmasULYeUbuhOcqLOZOK0Z2aH2GCxOYJ2PMhugiV8wQdr6J6bcyWoe7uJW7+ekGKWODsPOMUWadNIE5i+N5O8LOI+6GUF58jZqI4QyBsPNIGJjYTT3Qmtx5O2nGBmHnETv1SMSKs2g+d94ubo+OEXZ+YWSHWuqWz1jQ8omEcgt0BibVbf+l12ijD/CYGGomNN8dfLx7v1Qtj7BLiF0nh+4PxoIN9l/0EVuuM8YstcG2vvSnQB1onR187MEnpWp5hF1MuSchTGi2mkA/oo2dnmq1Wv4IaJQzgz1dj0q75RF2MRIFXGkdOvcUBI98oamMMtcO9XQvl7LlEXYtLrriFeinbJOAQ8sZU4VVP+r58mUpWxpXY1uUWza97/jIv9ugG7blM/aHoEPLiS5+xQQjuxbiHq7OjX7aq1XwrP2HWSubgZYVmnDz4e1r35KypTGyaxG7TgztKdzMXwhUcJCgQ1xorRdIs+URdk3mpqu9x4d/5UKOK6qIG6PMKmm2PMKuSdyV1b4TIz/VSv+E++GA+iPsGsydl+v98cg/GqXO2fKrpa1APAWhZmSHO33zjd88kh/Nn9VGfU82AfHGOTtMdHs0l0ql3ubiA9AchF2duWdW8zdzZxjNAc1F2NWRm7bqoj7LBQig+Qi7Ouk9NvRUEASnWQYdSWZM+IE0Wx5hVwd9J0b+RQfBq6wdh6QzgfpUmi2PsKshdyEiep5VqX2lLUCyBaG+Ls2WR9jViAu6ws38EaXVNtkEJF6oDWHnE4IOaH2E3TwRdPBZqItuCbJYIOzmKT+ayxJ08JEx5lZcFu50CLt56Ds2/KxWuk9KwDexGdU5hN0c2aDboQL9fSkB/2h9UVqxQNjNgXsywmg1KCXgJ83ILtHcS6dTQeoINwzDe8XwD9KKBcKuSm0qPWi/0VhRGN6zs5tYjex44U4Veo8PP21HdC9LCXjPGHPWnbvTRr1ji3NjwdjbrXqFlrCrkFtGPTTmDNNXoDwXgPY4edMoc+pQT/cp2dx0hF0F3I3D0QrDLLwJVMUG3jWt9KFisdj/wx1f+oVsbgrCrgJulWEW3wTmxyg1ZId9P2hf1PHqwJbOnGxuGMJuFn3HhruMVm5YzvQVqAWjLtkR3/5Ghx5XY2dhAv0iQQfUkFar3YU+91J493J42Vp3jOzKcC+wdu91lRJAPRh1ckwXMvW+isvIrhyjXpQWgHrRalubSZ91gwvZUheM7Gbg3iHhllaXEkAjaJ1N59PPDDzReUO21AwjuxnYoHtWmgAaxZhMPp0/454/ly01Q9hNI1rRRKnOUgWgkdz9rO6F8m4JNdlUE4TdNIxWz0kTQLME+vt9x0dqdiwSdlPsOj60SfNSa6A1aPV8rQKPsJtC6+BpaQJoBTUKPK7GTrDr5ND9QTGI1eqrgDeMen5we9cLUlWNkd0EQUH3ShNAq5nnCI+wm8AEumGPrgCYg3kEHtNY4R74V4GO1cqrgK9CFe493LO2X8qKMLITJsWoDogLbfQBd45dyooQdkIbxfk6ICbcSkRBMajqDX+EnSXfEDwxAcTLxmqesiDsnKLaLC0AMeKednLvh5GyLMLOCnRqkzQBxIibzoZKDbr3xMimGRF2jjGM7ICYcgsHFEbzs6496f2tJzw1ASSDDbN1r/d0vSPlHRjZcb4OSAQ7nS17s7H3Yad10CVNADFmR3ZPlLtYwcjOqG5pAYi5cqM7ws6YNdICEHfGbP3GiV+vlGoSwk4xsgOSwt2K0qbS095o7PXVWPcNYDvmAykBJIAx5lZRj3VOfQ+t1yO7wKQY1QEJE43uwra9Uo7zexqrFefrgCTS+umpT1Vwzg5A8mi1unAzv1OqiNdhp41eKk0ACWO0ce9/HlfxBYpsNmuHhG0bpEyE84u/sPdmW8cdc/u5KGqtrrQtkqq8lYVPpIXpXE4vllZ5K8ZuqpQxUmGqK20L7X7p73jGKHOtfWHH6oEtnTlXlw27bHbgazowu+xfc8PBZaWtKKcQtKurHZ9V77V/djz8Vuc/sj9X1fL8h/bgHIu2obyiblNXbR9eal9uf5ZE21y43Wf7cHnuQ5UO89E2lDddP/rEBt7WQz3dp1x72rDLZv91kw25l2yTl0XPwydtn1GBCdXC4k3ZgrkYTS1SoR2hLB77WLZgLkbbFqv/WXh/xSPnhHhpsKfrO65xxxj34MDAP9mge9M2Cbp5cgdnFHTMtObO9p3rQ4Ju/haOfaLWffSu+uvR92RL8pkJy7eNj+zcOTkdBEfspm2yCbXkeprQqw59VjfX25ep/178RS/O6aUL7UsHnui8Mf6b6lTKTlsJurpxBy0HbuXor7pamr+m/uqWHyO8XNun69xnFHbZ7MAOu2Ptc23UUTSO5giene2jac8mo5ZW3rqk7svfkCq5AhVEU9mgNH1VB6KtALzy4M3fq5QJpUomo1W0xp0d2QXuPrPVrkAjcCKqPNc3DOsaxd3CsyZ3VarEip6BD3Sgd0UlGkdzMM+Ivmm4e/IfSiuhZM1Kd87uq66BBmJgNzP6puGWFK6ru8KCVMnjVkFxy7kl/7ozgFktKUZPVCWWLgZrCDsA6q5ish+/SwWpNfpg/0BVE4dl//GfKvUxD7JPlPtip/q4q7p1QO97/7xacXlIKjhXVq5V7937Rakq85mRYdVx/oJUcAqrVqobD39FqsqMLHpAXVywXKrkCVW4t+qwW/laVqXeHZEKzujXd6jrj26UqjIP/O6XatVvX5EKzgcPPK1++4WHparM0p+fUQv/7Q2p4OS3bFJXHqvu+YCkh50Jw79nGgsg8bQOVhF2ALxA2AHwAmEHwAuEHQAvEHYAEi/U4UXCDoAXCDsAiReY4FPCDkDiaa2GCTsAiddWaOecHYCEM+rSpBfuAEAiaXXRfRB2AJJN62H3QdgBSDQThu+4T8IOQKIFWr8ZfUYVACSQUeba6z1djOwAJJtW+pw0CTsACWbUW9Ii7AAkVzEs/kSahB2AxLrwwx1f+oW0CTsAyWS0OiTNCGEHIJHCseKk184RdgCSaNIU1iHsACSOMeaOlzITdgASxQbdrfaxjoNSjiPsACSK1vpVt6STlOMIOwCJMqYK+6U5CWEHIDGMUkd+1PPly1JOQtgBSAR3rq6oCvukvANhByAR3Lm6mUZ1jj7YP2BHfmW4P9WlJiphO8zYDpvaZ1E/0pmVox9rpoLuGln0gLq4YLlUMWTUpfRY+9rpLkzcVmZk53rIYp+q0oQD1H1ObI8XmJ3tq4l9N7E9XqAi490lx/Q0ckGbtOLJKLO/XNA5d4bdeH+wQ82b68uoP2feyTCL231IF9aAHNPT9GUuSEsrlk4f2t59x03EU7mwu1BqWq4vyLg6sJ3KwVo912fsj7U35TjPpRaoq213SRUzdvo6pgp9UpUV2F/6aNTi27O+3M5F/1aOoKuvCcf7lY4VpUYMhSrsK3dRYqLAFIv77S+dY8dqAPq4cvRV/dk+Du1453cd98iGmDHq+cPb146vRDybIJPJXLa/dNkTe6glhnezo48aJQza1K14nq87Pbi96wVpVyTIZgd22M+YRnscMWSZHX3UKG1hXt2Xj9lYp4rzdBMFOjBPSRsNYhi5zIi+aby/yFV0yqtlVHOebqLAfotuljYaRDNymRF903hLCjdUuylK1eJC891qztNN5G49iek1ZwC1EJhQLRu7JVULM+r5wce7p13RpBJlnqAA4IuOsCCtFuWCrsoLElPN/mzsFIvPn1c6l5MKztjyZerW6nulqkzH5T+q9it/kgpOfsXnVG5lddfK7rr0vmq7ek0qOMXFi9Xo/fdLVZmWfja2BkHnVB12K1/LqtS7I1LBGf36DnX90Y1SVebuX55Vi14/LBWcm9/apW48vF6qyiz9+Rm18N8mvUTKe/ktm9SVx7ZJVZlWDTtjzLcreRSsEkxjAbQco8w1+7O1VkHnEHYAWs0FHaqNh3q6T0ldE4QdgNahdTZdaF8/+Hh3zc+VEXYAms+oS27aOvjYg0/Oti7dXBF2AJrLjebG2tfWeto6FWEHoCmMUke0UuvqOZqbiLAD0GinQxNuPtTT9Xev93S9I9vqjrAD0Bh2ulosFjcM9nRtmevzrfNB2AGopwvu4f0xVVjlpqs/3PGlX8j2hiPsANSMe1G1Muqke/LBhly3HcV93j28P5clmWqNsAMwJ+4pB/tx2v685MItOg+3vXvh4Pauv3VPPtTjXrn5IOwAqHtyH37fhdWsP6lwjR2tafdzqKd7uTv/Zn++48KtGefhqsFCADXAQgC1wUIAtTGXhQBMqPZmMrv7pUwkRnYAvEDYAfACYQfAC4QdAC8QdgC8QNgB8AJhB8ALhB0ALxB2ALxA2AHwAmEHwAuEHQAvEHYAvEDYAfACYQfAC4QdAC8QdgC8UPVKxZgj18vuq4Xeroy2P6F8ou5YqRjzdzvc3EFL0FXO9dXtoKPfGuG6fCYWYVc3coQyMpm/8T4k9eqn+IE0EsuFnXsdGmopOiZJudqzfUre1cOlTCbTtJdXN4oNO3NU2qgFdzCSc/Xj+pbAqzHzE2kkWmDC8BVpoxYIuvqjj2vKlwyIdpuD/f3/a5v3RVswDwzrGoe+rg3z3t49e/5SikQLstnsIwRdLXDwNZbra+az86fvsxnwkBSJFuggeKrUZMeZF03QNRx9Pk+lY95mwNNRI+EC+6vuLDXtjkPezR1913j0+dxFfXf7y0LvtKO7DikSy916sqzUtPiiBPww+Vh3GbCu1EyumW8q5luzcvRV89D3lSvbV6lV0kisyp6NdX/DxaL9bCuO2S8F9rCJijqlwmDm743ppD/6SAWFglRwwnRaFZYskapCxVAFYVEKOMbuiyaVKo3eKny+2IdnY6teCOBv/usHquOTn0kF5/frXlD/t6pTqsqs+PFJ1f7Tt6SCk9+ySV15bJtUlVl44aJa+s+vSgVnLv3IQgAAkBCEHQAvEHYAvEDYAfACYQfAC4QdAC8QdgC8QNgB8AJhB8ALhB0ALxB2ALxA2AHwAmEHwAuEHQAvEHYAvEDYAfACYQfAC4QdAC8QdgC8QNgB8AJhB8ALhB0ALxB2ALxA2AHwAmEHwAuEHQAvEHYAvEDYAfACYQfAC4QdAC/og/0DRtozs3/DaKO0bbYVi/Zz9v/FJ8UgpcIgUMbYPjK2l1xHzSL90UcqKBSkghOm06qwZIlUZdzeH7Xt6GKoArtP4s+M2xdT9se2K90fTaj2ZjK7+6VMpJnDrtRT7j9RiWrd7lb6rzboz/mx/Vcm+GzY7bRh94aUiTTDNNZ2TNQp7Fhz5/pu5p0LVRjfF+nMubu9L97+0piq+IE0EsuF3a1S0+Hbs+Zm2rdQOfqwhm4f25M61WXAuVIzuWzYmaOlpvvlCTnAD+5Yvx145mgmk8lJkViBCfXhUpOgA/xSOub/nAHJFv22BwcGfm9DvjPagvpiAD07+qhxtLqwd/fuz0uVaEE2m33I7lz3So164yCeHX3UOPbYjzLAA4FOpZ6ynx2lEg0x6dwwJqFvGq1DMiDx3J2HO6WNRonuX8S06JvG8yQD3K0nq0tNNA7ztJnRN02w2oepLM/GArBSq6SRWIRd0zBduxN90kSJD7vKFgKYYOVrWZV6d0QqOKNf36GuP7pRqsrc/cuzatHrXtzeVLGb39qlbjy8XqrKrB3+mVpx8QdSwfl45TfUufXbpaqMDwsBMLID4AXCDoAXCDsAXiDsAHiBsAPgBcIOgBcIOwBeIOwAeIGwA+AFwg6AFwg7AF4g7AB4gbAD4AXCDoAXCDsAXiDsAHiBsAPgBcIOgBcIOwBeIOwAeIGwA+AFwg6AFwg7AF4g7AB4gbAD4AXCDoAXCDsAXiDsAHiBsAPgBcIOgBf0wf4BI+2KLD5/XulcTio4Y8uXqVur75WqMh2X/6jar/xJKjj5FZ9TuZX3SFWZe66+rxZ98qFUcHILPqPev2eNVJUxodqbyezulzKRqg47AMljw67Xht1hKROJaSwAS38gjcRyYXer1ATgKZsBY+eknVgu7N4uNdEwWj5xJ/qmGd7OZDI3pJ1YgQlNoufpLclwmnRG9E3D+ZIB0ffowf6BX9mP9a6NenMHM8OX8uijBjq7d8/ur0g70aILFCZU34sqAF7x6diPwi6T2X3KKPN8tAX1E83QGLHMzvYRs9m6c8e8O/alTLxJR97B/v7X7KaMlKglZmbVo8/qyGT37tnzpBRemHSfnfvlTWi+KyVqhYN2blyfMcKrOXeM+xZ0zqSwczKZPftNWFxnu+SIbMKcmTfszymCbh6ivrN9GPUl5scccce2O8Zlg1fKHobZbPYhFQQ7tdK7bLm2tBWzOFO6lB8ezWQyf3AbbD922X7spR+rcta4gAvDQ7YfR9yGqB9VsFUHeo8tuXugMkO2Hw9P7Ec/KfX/RKU3IRcJwuIAAAAASUVORK5CYII=;" parent="LvsWlQzkbfCYbf-eFKxt-10" vertex="1">
          <mxGeometry x="20" y="321" width="70" height="70" as="geometry" />
        </mxCell>
        <mxCell id="LvsWlQzkbfCYbf-eFKxt-2" value="JumpBoxProvisioner&lt;br&gt;Internal IP : 10.0.0.4&lt;br&gt;External IP: 104.42.121.165" style="verticalLabelPosition=bottom;html=1;verticalAlign=top;align=center;strokeColor=none;fillColor=#00BEF2;shape=mxgraph.azure.virtual_machine;" parent="LvsWlQzkbfCYbf-eFKxt-10" vertex="1">
          <mxGeometry x="540" y="596" width="50" height="40" as="geometry" />
        </mxCell>
        <mxCell id="1xD5PDsMJuq3n_WsqEgS-4" style="edgeStyle=orthogonalEdgeStyle;rounded=0;orthogonalLoop=1;jettySize=auto;html=1;entryX=0;entryY=0.5;entryDx=0;entryDy=0;entryPerimeter=0;exitX=0.4;exitY=0.98;exitDx=0;exitDy=0;exitPerimeter=0;" edge="1" parent="LvsWlQzkbfCYbf-eFKxt-10" source="LvsWlQzkbfCYbf-eFKxt-1" target="1xD5PDsMJuq3n_WsqEgS-1">
          <mxGeometry relative="1" as="geometry" />
        </mxCell>
        <mxCell id="LvsWlQzkbfCYbf-eFKxt-1" value="" style="aspect=fixed;html=1;points=[];align=center;image;fontSize=12;image=img/lib/mscae/Load_Balancer_feature.svg;" parent="LvsWlQzkbfCYbf-eFKxt-10" vertex="1">
          <mxGeometry x="400" y="271" width="50" height="50" as="geometry" />
        </mxCell>
        <mxCell id="LvsWlQzkbfCYbf-eFKxt-14" style="edgeStyle=orthogonalEdgeStyle;rounded=0;orthogonalLoop=1;jettySize=auto;html=1;entryX=0;entryY=0.5;entryDx=0;entryDy=0;entryPerimeter=0;" parent="LvsWlQzkbfCYbf-eFKxt-10" source="LvsWlQzkbfCYbf-eFKxt-1" target="LvsWlQzkbfCYbf-eFKxt-3" edge="1">
          <mxGeometry relative="1" as="geometry">
            <mxPoint x="540" y="150" as="targetPoint" />
            <Array as="points">
              <mxPoint x="425" y="190" />
            </Array>
          </mxGeometry>
        </mxCell>
        <mxCell id="LvsWlQzkbfCYbf-eFKxt-4" value="Web 2&lt;br&gt;IP - 10.0.0.6&lt;br&gt;" style="verticalLabelPosition=bottom;html=1;verticalAlign=top;align=center;strokeColor=none;fillColor=#00BEF2;shape=mxgraph.azure.virtual_machine;" parent="LvsWlQzkbfCYbf-eFKxt-10" vertex="1">
          <mxGeometry x="540" y="276" width="50" height="40" as="geometry" />
        </mxCell>
        <mxCell id="LvsWlQzkbfCYbf-eFKxt-15" style="edgeStyle=orthogonalEdgeStyle;rounded=0;orthogonalLoop=1;jettySize=auto;html=1;entryX=0;entryY=0.5;entryDx=0;entryDy=0;entryPerimeter=0;" parent="LvsWlQzkbfCYbf-eFKxt-10" source="LvsWlQzkbfCYbf-eFKxt-1" target="LvsWlQzkbfCYbf-eFKxt-4" edge="1">
          <mxGeometry relative="1" as="geometry" />
        </mxCell>
        <mxCell id="1xD5PDsMJuq3n_WsqEgS-7" value="" style="aspect=fixed;html=1;points=[];align=center;image;fontSize=12;image=img/lib/mscae/Docker.svg;" vertex="1" parent="LvsWlQzkbfCYbf-eFKxt-10">
          <mxGeometry x="540" y="380" width="24.39" height="20" as="geometry" />
        </mxCell>
        <mxCell id="1xD5PDsMJuq3n_WsqEgS-6" value="" style="aspect=fixed;html=1;points=[];align=center;image;fontSize=12;image=img/lib/mscae/Docker.svg;" vertex="1" parent="LvsWlQzkbfCYbf-eFKxt-10">
          <mxGeometry x="540" y="256" width="24.39" height="20" as="geometry" />
        </mxCell>
        <mxCell id="1xD5PDsMJuq3n_WsqEgS-5" value="" style="aspect=fixed;html=1;points=[];align=center;image;fontSize=12;image=img/lib/mscae/Docker.svg;" vertex="1" parent="LvsWlQzkbfCYbf-eFKxt-10">
          <mxGeometry x="540" y="150" width="24.39" height="20" as="geometry" />
        </mxCell>
      </root>
    </mxGraphModel>
  </diagram>
</mxfile>
